REM DIRINDEX 1\5,1\2\6,1\2\7,1\3\8,1\3\9,1\4\10,1\4\11,1\4\12
REM DIRNAME cjc026,folder01,folder02,folder03,folder04,folder05,folder06,folder07,folder08,folder09,folder10,folder11
TITLE ""
FILE "EJE_DB3000_5th_6C_29.mp3" MP3
  TRACK 01 AUDIO
    TITLE "0:"
    INDEX 01 00:00:00
  TRACK 02 AUDIO
    TITLE "10:cjc026_11268"
    INDEX 01 00:00:08
  TRACK 03 AUDIO
    TITLE "0:"
    INDEX 01 00:01:24
  TRACK 04 AUDIO
    TITLE "11:cjc026_11269"
    INDEX 01 00:01:60
  TRACK 05 AUDIO
    TITLE "0:"
    INDEX 01 00:03:01
  TRACK 06 AUDIO
    TITLE "12:cjc026_11270"
    INDEX 01 00:03:36
  TRACK 07 AUDIO
    TITLE "0:"
    INDEX 01 00:04:53
  TRACK 08 AUDIO
    TITLE "10:cjc026_11271"
    INDEX 01 00:05:13
  TRACK 09 AUDIO
    TITLE "0:"
    INDEX 01 00:06:27
  TRACK 10 AUDIO
    TITLE "11:cjc026_11272"
    INDEX 01 00:06:65
  TRACK 11 AUDIO
    TITLE "0:"
    INDEX 01 00:08:20
  TRACK 12 AUDIO
    TITLE "12:cjc026_11273"
    INDEX 01 00:08:56
  TRACK 13 AUDIO
    TITLE "0:"
    INDEX 01 00:09:72
  TRACK 14 AUDIO
    TITLE "10:cjc026_11274"
    INDEX 01 00:10:33
  TRACK 15 AUDIO
    TITLE "0:"
    INDEX 01 00:11:57
  TRACK 16 AUDIO
    TITLE "11:cjc026_11275"
    INDEX 01 00:12:15
  TRACK 17 AUDIO
    TITLE "0:"
    INDEX 01 00:13:40
  TRACK 18 AUDIO
    TITLE "12:cjc026_11276"
    INDEX 01 00:14:00
  TRACK 19 AUDIO
    TITLE "0:"
    INDEX 01 00:15:25
  TRACK 20 AUDIO
    TITLE "10:cjc026_11277"
    INDEX 01 00:15:60
  TRACK 21 AUDIO
    TITLE "0:"
    INDEX 01 00:17:07
  TRACK 22 AUDIO
    TITLE "11:cjc026_11278"
    INDEX 01 00:17:45
  TRACK 23 AUDIO
    TITLE "0:"
    INDEX 01 00:19:54
  TRACK 24 AUDIO
    TITLE "12:cjc026_11279"
    INDEX 01 00:20:14
  TRACK 25 AUDIO
    TITLE "0:"
    INDEX 01 00:21:36
  TRACK 26 AUDIO
    TITLE "10:cjc026_11280"
    INDEX 01 00:21:72
  TRACK 27 AUDIO
    TITLE "0:"
    INDEX 01 00:23:13
  TRACK 28 AUDIO
    TITLE "11:cjc026_11281"
    INDEX 01 00:23:48
  TRACK 29 AUDIO
    TITLE "0:"
    INDEX 01 00:25:01
  TRACK 30 AUDIO
    TITLE "12:cjc026_11282"
    INDEX 01 00:25:36
  TRACK 31 AUDIO
    TITLE "0:"
    INDEX 01 00:26:53
  TRACK 32 AUDIO
    TITLE "10:cjc026_11283"
    INDEX 01 00:27:13
  TRACK 33 AUDIO
    TITLE "0:"
    INDEX 01 00:28:35
  TRACK 34 AUDIO
    TITLE "11:cjc026_11284"
    INDEX 01 00:28:73
  TRACK 35 AUDIO
    TITLE "0:"
    INDEX 01 00:30:28
  TRACK 36 AUDIO
    TITLE "12:cjc026_11285"
    INDEX 01 00:30:66
  TRACK 37 AUDIO
    TITLE "0:"
    INDEX 01 00:32:13
  TRACK 38 AUDIO
    TITLE "10:cjc026_11286"
    INDEX 01 00:32:48
  TRACK 39 AUDIO
    TITLE "0:"
    INDEX 01 00:33:68
  TRACK 40 AUDIO
    TITLE "11:cjc026_11287"
    INDEX 01 00:34:28
  TRACK 41 AUDIO
    TITLE "0:"
    INDEX 01 00:35:58
  TRACK 42 AUDIO
    TITLE "12:cjc026_11288"
    INDEX 01 00:36:21
  TRACK 43 AUDIO
    TITLE "0:"
    INDEX 01 00:37:38
  TRACK 44 AUDIO
    TITLE "10:cjc026_11289"
    INDEX 01 00:37:73
  TRACK 45 AUDIO
    TITLE "0:"
    INDEX 01 00:39:28
  TRACK 46 AUDIO
    TITLE "11:cjc026_11290"
    INDEX 01 00:39:61
  TRACK 47 AUDIO
    TITLE "0:"
    INDEX 01 00:41:19
  TRACK 48 AUDIO
    TITLE "12:cjc026_11291"
    INDEX 01 00:41:54
  TRACK 49 AUDIO
    TITLE "0:"
    INDEX 01 00:43:06
  TRACK 50 AUDIO
    TITLE "10:cjc026_11292"
    INDEX 01 00:43:44
  TRACK 51 AUDIO
    TITLE "0:"
    INDEX 01 00:44:61
  TRACK 52 AUDIO
    TITLE "11:cjc026_11293"
    INDEX 01 00:45:21
  TRACK 53 AUDIO
    TITLE "0:"
    INDEX 01 00:46:46
  TRACK 54 AUDIO
    TITLE "12:cjc026_11294"
    INDEX 01 00:47:12
  TRACK 55 AUDIO
    TITLE "0:"
    INDEX 01 00:48:28
  TRACK 56 AUDIO
    TITLE "10:cjc026_11295"
    INDEX 01 00:48:63
  TRACK 57 AUDIO
    TITLE "0:"
    INDEX 01 00:50:27
  TRACK 58 AUDIO
    TITLE "11:cjc026_11296"
    INDEX 01 00:50:59
  TRACK 59 AUDIO
    TITLE "0:"
    INDEX 01 00:52:39
  TRACK 60 AUDIO
    TITLE "12:cjc026_11297"
    INDEX 01 00:52:74
  TRACK 61 AUDIO
    TITLE "0:"
    INDEX 01 00:54:37
  TRACK 62 AUDIO
    TITLE "10:cjc026_11298"
    INDEX 01 00:54:67
  TRACK 63 AUDIO
    TITLE "0:"
    INDEX 01 00:56:17
  TRACK 64 AUDIO
    TITLE "11:cjc026_11299"
    INDEX 01 00:56:52
  TRACK 65 AUDIO
    TITLE "0:"
    INDEX 01 00:58:02
  TRACK 66 AUDIO
    TITLE "12:cjc026_11300"
    INDEX 01 00:58:37
  TRACK 67 AUDIO
    TITLE "0:"
    INDEX 01 00:59:59
  TRACK 68 AUDIO
    TITLE "10:cjc026_11301"
    INDEX 01 01:00:22
  TRACK 69 AUDIO
    TITLE "0:"
    INDEX 01 01:01:50
  TRACK 70 AUDIO
    TITLE "11:cjc026_11302"
    INDEX 01 01:02:18
  TRACK 71 AUDIO
    TITLE "0:"
    INDEX 01 01:03:48
  TRACK 72 AUDIO
    TITLE "12:cjc026_11303"
    INDEX 01 01:04:19
  TRACK 73 AUDIO
    TITLE "0:"
    INDEX 01 01:05:49
  TRACK 74 AUDIO
    TITLE "10:cjc026_11304"
    INDEX 01 01:06:12
  TRACK 75 AUDIO
    TITLE "0:"
    INDEX 01 01:07:23
  TRACK 76 AUDIO
    TITLE "11:cjc026_11305"
    INDEX 01 01:07:56
  TRACK 77 AUDIO
    TITLE "0:"
    INDEX 01 01:09:14
  TRACK 78 AUDIO
    TITLE "12:cjc026_11306"
    INDEX 01 01:09:49
  TRACK 79 AUDIO
    TITLE "0:"
    INDEX 01 01:10:63
  TRACK 80 AUDIO
    TITLE "10:cjc026_11307"
    INDEX 01 01:11:23
  TRACK 81 AUDIO
    TITLE "0:"
    INDEX 01 01:12:51
  TRACK 82 AUDIO
    TITLE "11:cjc026_11308"
    INDEX 01 01:13:11
  TRACK 83 AUDIO
    TITLE "0:"
    INDEX 01 01:14:55
  TRACK 84 AUDIO
    TITLE "12:cjc026_11309"
    INDEX 01 01:15:15
  TRACK 85 AUDIO
    TITLE "0:"
    INDEX 01 01:16:42
